<svg cache-id="b7eaaff389f1435ea3757394b26b7854" id="enVhx3rK8ST1" xmlns="http://www.w3.org/2000/svg" xmlns:xlink="http://www.w3.org/1999/xlink" viewBox="0 0 367 419" shape-rendering="geometricPrecision" text-rendering="geometricPrecision"><defs><polygon id="enVhx3rK8ST2" points="0.025218,0.295 93.396529,0.295 93.396529,54.0745 0.025218,54.0745"/><polygon id="enVhx3rK8ST3" points="0.991605,0.647273 210.222066,0.647273 210.222066,210 0.991605,210"/></defs><g><g transform="translate(-24-147)"><g transform="translate(24 147)"><path d="M150,118c0,57.9896,47.0104,105,105,105s105-47.0104,105-105-47.0104-105-105-105-105,47.0104-105,105" transform="translate(-1 0)" fill="#e2d3f5" fill-rule="evenodd"/><path d="M264.561277,17.003372c3.305541-.938946,6.839752-1.348977,10.211353-.657505c3.36906.691472,6.557726,2.579068,8.262582,5.442004c1.94877,3.268114,1.763294,7.266518,1.524462,11.019876-.602163,9.404015-1.204325,18.808031-1.803946,28.20962-.167691,2.608183-.315056,5.325545.744445,7.737205c1.062042,2.409233,3.722227,4.391452,6.40528,3.862536c1.364393-.26931,2.515362-1.125764,3.811154-1.625565c1.293252-.497374,3.018434-.516784,3.82894.565309.482746.642947.503072,1.501828.411604,2.290348-.39636,3.476768-2.650022,6.713341-5.853933,8.409267c1.885251-.871012,4.248167.946224,4.278656,2.940574.03303,1.999203-1.654041,3.724243-3.597729,4.469091-1.941148.742423-4.098262.715734-6.189315.676915c1.722642.026688,3.051464,1.785695,2.881233,3.423391-.170232,1.63527-1.521921,3.00123-3.109902,3.641751-1.58544.640522-3.371601.66721-5.086621.514358-3.646004-.322686-7.284386-1.441172-10.157996-3.61021-5.01802-3.78975-7.050635-10.258044-7.119236-16.367257-.071142-6.109213,1.51938-12.111673,2.413731-18.160231c2.070727-14.035663.376034-28.299391-1.318659-42.378725.414145-.118885.823209-.23777,1.234814-.356654" fill="#ff7081" fill-rule="evenodd"/><path d="M239,85.745377l-70.52143,26.614722l6.730706-28.669738L156.868913,79c0,0-19.727932,56.045669-6.02694,57.542967c23.985472,2.627808,60.279377-6.933796,60.279377-6.933796L239,85.745377Z" fill="#ffafa7" fill-rule="evenodd"/><path d="M214,146.939127l.154644,54.665491c17.781648,22.128896,79.685172-6.486773,79.685172-6.486773l.722478-22.356373L296,119.507319c-1.425625-21.206756-20.884194-31.616901-20.884194-31.616901-8.04149-4.055456-20.309111-6.362027-31.361327-5.809233-11.537895.577254-14.389144,6.17124-19.142032,16.82843C220.772926,107.521955,214,115.598623,214,146.939127" fill="#241352" fill-rule="evenodd"/><path d="M271.701021,31.307007l-.830168,10.95074c0,0,9.30572,1.257044,6.65359,9.750055s-9.019202,4.775787-9.019202,4.775787-1.591768,21.766709-23.87162,14.863994c-17.734743-5.491298-16.649892-28.468494-14.399377-48.056817.874248-7.588822,8.046999-12.805677,15.540552-11.345251l13.395339,2.612103c7.740889,1.506982,13.128412,8.578774,12.530886,16.449389" fill="#ffafa7" fill-rule="evenodd"/><path d="M272,51l-6.103487,32.395425c-1.374591,7.300307-8.60863,11.968936-15.867571,10.246697-6.726037-1.598336-11.034087-8.137885-9.826339-14.912848l3.31446-18.567958L272,51Z" fill="#ffafa7" fill-rule="evenodd"/><path d="M245.979035,52.080053c.030714-.007569.090524.479355-.358862.835088-.468784.338072-1.220454-.368347-1.414434-1.508709-.24894-1.092427-.21661-2.409393-.182664-3.746544.046879-1.455727.093757-2.893794.143868-4.402503.250557-6.241716.641749-11.28252.872908-11.257385.232776.020278.216611,5.098925-.033946,11.340641-.071126,1.503663-.139019,2.941731-.208528,4.394935-.080825,1.352288-.155184,2.520402-.021015,3.408472.09699.895638.496265,1.319489.758137,1.2766.268338-.047936.387959-.403668.444536-.340595" fill="#241352" fill-rule="evenodd"/><path d="M240.007599,69.023943c.182729-.321235,4.547908,2.69431,10.930715,2.79611c6.382807.140258,10.887571-2.710145,11.055072-2.382123.09644.113112-.862884.979544-2.804374,1.879909-1.921187.900365-4.900676,1.744175-8.278615,1.67857-3.377938-.06108-6.311745-1.015738-8.189788-1.988495-1.898346-.972756-2.814526-1.873122-2.71301-1.983971" fill="#241352" fill-rule="evenodd"/><path d="M244.026699,56.736861c.142663-.11738.637228.306108,1.54076.672056.88451.370551,2.261207.637532,3.609372.223251c1.348165-.425789,2.304007-1.417761,2.798572-2.218704.515964-.805547.663382-1.42927.851222-1.413159.147418,0,.328125.704278-.059443,1.776805-.36379,1.042607-1.431385,2.430448-3.209916,2.996632-1.788042.543169-3.492865.018413-4.415418-.626024-.95822-.651342-1.236413-1.325699-1.115149-1.410857" fill="#241352" fill-rule="evenodd"/><path d="M272.025942,51.782198c-.009728-.161767.35833-.258406.745846-.590343.192946-.17227.348601-.401264.402107-.710091.051885-.321432-.019456-.563032-.176732-.626057-.144305-.07143-.264289-.006303-.280503.02521L272,49.397718c.564248-1.483209,1.08634-2.491623,1.261451-2.390782.175112.098741-.053506,1.279426-.522091,2.815157l-.715039-.483199c.270774-.596645.856101-.726898,1.272801-.506308.308066.130254.583705.537821.653425.911775.087556.384458.048642.752109-.037292,1.052532-.175112.617654-.580462.9727-.885286,1.09455-.642075.2437-1.002027.018907-1.002027-.109245" fill="#241352" fill-rule="evenodd"/><path d="M257.008943,31.78424c-.116397-.26.91824-.808,2.241713-.482c1.325628.32,1.937788,1.268,1.698528,1.442-.232793.202-.995838-.21-1.983053-.434-.978594-.254-1.862347-.244-1.957188-.526" fill="#241352" fill-rule="evenodd"/><path d="M237.014179,28.17403c-.155034-.25.97791-.916,2.583114-.796c1.605204.114,2.580729.936,2.375606,1.16-.190811.248-1.22358-.042-2.485323-.122-1.259357-.106-2.335058.03-2.473397-.242" fill="#241352" fill-rule="evenodd"/><path d="M270.275369,42.40985c-6.08712-6.113856-7.874912-16.299501-9.526103-24.890012-5.636577,4.229821-13.389267,5.269374-19.888585,2.669257-2.039425,2.469247-4.435929,4.627369-7.084066,6.378065-.752502.498788-1.646398.980291-2.504346.713613-1.020911-.316064-1.476246-1.523526-1.718293-2.59271-.776468-3.427315-.805226-7.094147.354682-10.402938s3.589963-6.217565,6.774917-7.486758c3.403035-1.358086,7.235045-.767936,10.769888.175317c5.322635,1.422286,10.45355,3.60757,15.196231,6.471897c4.658803,2.812472,9.133076,6.531158,11.107795,11.7067c1.977116,5.173073,1.96753,15.232786-2.79672,17.847719" fill="#ff7081" fill-rule="evenodd"/><path d="M235.444037,86.224868C241.640241,83.868954,194,100.80163,194,100.80163L198.831024,132l18.120117-5.690845l18.492896-40.084287Z" fill="#241352" fill-rule="evenodd"/><path d="M172.767898,85c0,0,12.137607-17.090724,9.97369-17.080817-2.163917.007431-3.292596,3.224946-7.495021,5.426924c0,0,6.708142-21.370836,4.632749-20.922514-2.077852.448322-7.027812,14.165486-7.3524,14.150624s4.271277-15.384128,2.547521-15.572374c-1.721298-.188246-5.943395,14.108517-5.943395,14.108517s2.89178-13.590842,1.067204-13.895502-4.517176,12.216152-4.517176,12.216152s2.151622-10.514511.491799-10.77211C165.162221,52.505331,156,78.584786,156,78.584786c.240982,0,16.767898,6.415214,16.767898,6.415214" fill="#ffafa7" fill-rule="evenodd"/><path d="M267.528859,145c-.09252.009593-.280132-.858555-.544844-2.437666s-.603955-3.866765-.994599-6.698524c-.778716-5.665935-1.773314-13.486523-2.770483-22.160748-.228732-2.181253-.352093-4.377014.00771-6.497811.328963-2.120796,1.269591-4.115844,2.588012-5.653844c2.652262-3.117111,6.306833-4.606747,9.321468-5.167778c3.058325-.568287,5.579517-.389337,7.270591-.195878c1.698784.210387,2.606001.471557,2.593286.546522-.015555.09673-.953613,0-2.636977-.055619-1.673084-.043528-4.135164-.077384-7.021298.575541-2.845014.638415-6.196322,2.135306-8.555602,5.010593-1.16936,1.424343-1.973776,3.177567-2.264189,5.129086-.313542,1.946683-.197891,4.03846.03084,6.183439.994599,8.647625,1.840136,16.504486,2.37727,22.189768.269853,2.841431.465174,5.148432.570545,6.742052.105371,1.596038.120791,2.481114.02827,2.490867" fill="#241352" fill-rule="evenodd"/><path d="M265,142.095315c.036343-.335924,8.351087.244309,18.566412,1.296713c10.21774,1.052405,18.469694,2.177633,18.433588,2.513557-.036343.333575-8.346257-.244309-18.566412-1.299063-10.215325-1.050055-18.469694-2.175283-18.433588-2.511207" fill="#241352" fill-rule="evenodd"/><g display="none" transform="translate(117 0)"><g mask="url(#enVhx3rK8ST35)"><polygon points="93.396529,3.0245 93.396529,40.037 68.961252,40.037 68.183138,54.0745 53.823831,39.2245 0.025218,39.2245 4.763073,0.2945" fill="#7e2e84" fill-rule="evenodd"/><mask id="enVhx3rK8ST35" mask-type="luminance" x="-150%" y="-150%" height="400%" width="400%"><use width="93.371315" height="53.779503" xlink:href="#enVhx3rK8ST2" fill="#fff" fill-rule="evenodd"/></mask></g></g><path d="M203.801128,13.831385c-23.769155-.394-47.694718-.53-71.463873-.118-.449673.008-.449673.566,0,.574c23.769155.412,47.694718.274,71.463873-.12.263939-.002.266383-.332,0-.336" fill="#e6e2eb" fill-rule="evenodd"/><path d="M203.801128,21.831c-23.769155-.392-47.694718-.53-71.463873-.118-.449673.008-.449673.566,0,.574c23.769155.412,47.694718.274,71.463873-.118.263939-.004.266383-.334,0-.338" fill="#e6e2eb" fill-rule="evenodd"/><path d="M200.803175,29.831422c-14.410785-.374-29.056187-.488-43.46939-.118-.445047.012-.445047.562,0,.574c14.413203.368,29.058605.256,43.46939-.118.261223-.006.263641-.332,0-.338" fill="#e6e2eb" fill-rule="evenodd"/><path d="M237.728535,37.814948c-.262.128-.658-.144-1.032-.49-.368-.354-.664-.73-.552-1c.102-.264.742-.254,1.266.24s.576,1.132.318,1.25" fill="#241352" fill-rule="evenodd"/><path d="M256.831273,38.984741c-.266.097303-.728-.283661-1.178-.775121-.446-.496408-.762-.966428-.574-1.149489.18-.181411.88.052774,1.408.633291s.604,1.198964.344,1.291319" fill="#241352" fill-rule="evenodd"/><path d="M252.816075,55.777781c.462009,1.892543.023748,3.749273-.980151,4.145963-1.001741.399445-2.191308-.809909-2.653317-2.702451-.459851-1.889788-.021589-3.746518.98231-4.145963c1.00174-.39669,2.191307.812664,2.651158,2.702451" fill="#241352" fill-opacity="0.2" fill-rule="evenodd"/><path d="M264,44.45968c.011968,1.932674-2.21584,3.518595-4.977169,3.540099s-5.008363-1.526785-5.022831-3.459459c-.011968-1.932673,2.21584-3.518595,4.979572-3.540099c2.758926-.021504,5.008363,1.526786,5.020428,3.459459" fill="#241352" fill-opacity="0.15" fill-rule="evenodd"/><path d="M242,45.45968c.011968,1.932674-2.21584,3.518595-4.977169,3.540099s-5.008363-1.526785-5.022831-3.459459c-.011968-1.932673,2.21584-3.518595,4.979572-3.540099c2.758926-.021504,5.008363,1.526786,5.020428,3.459459" fill="#241352" fill-opacity="0.15" fill-rule="evenodd"/><path d="M272.254812,27.980387c-.104919-.140554.284156-.700305-.069946-1.728569-.295085-.993742-1.19127-2.41901-1.903846-4.048945-1.508213-3.24754-2.509316-6.019168-2.236089-6.194244s1.72898,2.335171,3.250308,5.607369c.716947,1.664457,1.48854,3.055203,1.674335,4.436085.089618.665783-.02623,1.282248-.249183,1.605276-.218582.325494-.419677.379743-.465579.323028" fill="#6f35a5" fill-rule="evenodd"/><polygon points="219.184229,133.786 215,188.37996 273,196 269.075413,133" fill="#7cabff" fill-rule="evenodd"/><polyline points="222,96.399603 222,139 229,136.551923 229,88 222,89.987858" fill="#7cabff" fill-rule="evenodd"/><path d="M275.711471,90c0,0-25.96975,3.310922-18.291974,45.311348L263.926171,136c0,0-7.338577-39.45903,17.073829-42.274907L275.711471,90Z" fill="#7cabff" fill-rule="evenodd"/><path d="M268.651809,138c0,0,8.81748,52.133106-3.617112,50.850902-40.901192-4.219664-65.255758-4.790356-65.255758-4.790356L193,198.184561c-.157347,2.406295,77.456671,24.69788,89.928199,17.328292c8.805168-5.205405,22.832866-19.223188,16.46537-61.11348l-1.504463-14.040018L268.651809,138Z" fill="#ffafa7" fill-rule="evenodd"/><path d="M290.45492,103.899822c0,0,9.436234,9.21696,11.54508,44.100178l-36.517618-4.110467c0,0-6.085458-59.407267,24.972538-39.989711" fill="#241352" fill-rule="evenodd"/><path d="M204.354915,184.631645c0,0-20.127844-6.280895-19.439417-4.214358.690904,2.064075,4.118185,2.142894,7.542989,5.473c0,0-22.505149.241383-21.420504,2.086242c1.082169,1.844859,15.727355,2.307921,15.816504,2.620734.089149.315276-16.022041.706909-15.658017,2.411371.361549,1.706926,15.331138,1.290662,15.331138,1.290662s-13.875039,1.468005-13.592734,3.305475c.287258,1.839933,13.080128.514787,13.080128.514787s-10.707776,1.21677-10.430424,2.881822c.170869,1.014796,31.350703,1.246327,31.415422,1.992645.034335.389169-2.645085-18.36238-2.645085-18.36238" fill="#ffafa7" fill-rule="evenodd"/><path d="M229.293955,132.000194c.154346-.015753.54021.929416.689577,2.659601.052278.850652.007468,1.979604-.545189,3.095428C228.930495,138.821164,227.805265,140,226.24687,140c-1.526032-.018378-2.653752-1.021308-3.296029-2.016361-.667173-1.055439-.843923-2.124005-.923586-2.979908-.104557-1.724933.114515-2.727863.27135-2.738365.199156-.013127.311181,1.039686.63232,2.583462.176751.756136.445611,1.664548.988311,2.39968.54021.737757,1.416496,1.391499,2.325145,1.383622.906159.015753,1.697803-.685247,2.150883-1.491267.468016-.800768.609915-1.706555.672151-2.486319.08962-1.572657.027384-2.633346.22654-2.65435" fill="#241352" fill-rule="evenodd"/><path d="M226.52813,134.382028c.066634.101735-.011377.2952.07801.520352.118641.258509.232407.320217.448561.186794.203152-.153438.190151-.286861.00325-.498672-.167397-.170115-.372175-.170115-.437184-.271851-.084511-.075051.156021-.418617.677717-.290196.234031.066711.533072.248501.661464.650441.134893.415281-.086136.908949-.435559,1.132434-.334795.243498-.862991.266848-1.184785-.021681-.315292-.275187-.362424-.62876-.331544-.877262.082886-.542034.48269-.637098.52007-.530359" fill="#241352" fill-rule="evenodd"/><path d="M263.474767,133.005755c.139482-.067808.671091.465903.48687,1.47864-.147377.936181-1.226386,2.386386-3.313348,2.515439-2.094857.017499-3.315979-1.351775-3.558098-2.274831-.286859-.995239.189484-1.563947.334229-1.507076.205275.039372.150009.573082.576349,1.231471.376338.64089,1.394817,1.448018,2.589622,1.41302c1.194806-.048121,2.126438-.923056,2.436982-1.590194.355284-.684637.247383-1.213973.447394-1.266469" fill="#241352" fill-rule="evenodd"/><path d="M261.136218,129.73087c-.070399-.14325.145826-.716253.712368-.73087.268186.002923.633588.160791.911831.745487.300032.567156.321823,1.657614.045256,2.321244-.23131.707482-.821318,1.195703-1.307404.780569-.494467-.467757-.527991-1.265867-.48441-1.745318.045256-.517456.243043-.900432.414011-.99106.172644-.087704.259805.026312.268185.11694-.001676.219261-.15253.453139-.067046.915049.120684.53792.217901.555461.44083.102322.197787-.499915.010057-.926743-.311766-1.181086-.298356-.225108-.558161-.146174-.621855-.333277" fill="#241352" fill-rule="evenodd"/><path d="M258.780209,156.99609c-.286-.075248-.332-1.193938-.298-2.51329.04-1.319353.14-2.425502.428-2.480684.28-.05769.656,1.071034.614,2.525833-.038,1.454799-.468,2.545898-.744,2.468141" fill="#241352" fill-rule="evenodd"/><path d="M254.039668,165.943615c-.163594-.252535.200484-1.184973.694474-2.22668.498802-1.039279.971942-1.855162,1.180444-1.697327.205295.148121.041701,1.299099-.503613,2.437935-.540503,1.138836-1.214126,1.736179-1.371305,1.486072" fill="#241352" fill-rule="evenodd"/><path d="M246.002025,170.550065c-.05517-.29,1.024578-.638,2.33814-.968c1.318817-.322,2.453734-.526,2.637633-.27.181272.248-.764493.904-2.214666,1.262-1.447545.358-2.711192.256-2.761107-.024" fill="#241352" fill-rule="evenodd"/><path d="M235.017945,169.382383c.163606-.262,1.298461-.098,2.620294.184c1.321833.288,2.402152.608,2.360601.9-.03376.282-1.280282.416-2.726767.102-1.446486-.31-2.417734-.932-2.254128-1.186" fill="#241352" fill-rule="evenodd"/><path d="M228.074359,163.023203c.197085-.172128.668242.636127,1.170193,1.671392.498871,1.040254.871485,1.96825.722132,2.240163-.143195.266924-.805278-.299354-1.353421-1.439392-.549682-1.13505-.73137-2.307518-.538904-2.472163" fill="#241352" fill-rule="evenodd"/><path d="M226.988215,153.001022c.29.037678.434,1.140403.518,2.45915.078,1.323772.066,2.446591-.218,2.534508-.274.090428-.734-.982153-.82-2.43152-.092-1.451878.238-2.602329.52-2.562138" fill="#241352" fill-rule="evenodd"/><path d="M233.999895,152.072c-.012506.288-1.143032.488-2.521174.448-1.383144-.04-2.488658-.306-2.478654-.592.015007-.288,1.143033-.488,2.523675-.448s2.488659.304,2.476153.592" fill="#241352" fill-rule="evenodd"/><path d="M243.999895,152.072c-.012506.288-1.143023.488-2.523656.448-1.380632-.038-2.48864-.304-2.476134-.592s1.143023-.488,2.523656-.448s2.48864.304,2.476134.592" fill="#241352" fill-rule="evenodd"/><path d="M254.999895,152.072c-.012506.288-1.143023.488-2.523656.448s-2.48864-.306-2.476134-.592c.012506-.288,1.143023-.488,2.523656-.448s2.48864.304,2.476134.592" fill="#241352" fill-rule="evenodd"/><g transform="translate(4 209)"><g mask="url(#enVhx3rK8ST70)"><path d="M210.222066,105.323268c0,57.810658-46.838132,104.678452-104.615231,104.678452-57.779554,0-104.61523-46.867794-104.61523-104.678452s46.835676-104.675995,104.61523-104.675995c57.777099,0,104.615231,46.865337,104.615231,104.675995" fill="#e2d3f5" fill-rule="evenodd"/><mask id="enVhx3rK8ST70" mask-type="luminance" x="-150%" y="-150%" height="400%" width="400%"><use width="209.230453" height="209.352722" xlink:href="#enVhx3rK8ST3" fill="#fff" fill-rule="evenodd"/></mask></g></g><path d="M125,278.747597l70.523926,26.613569-6.733202-28.668496L207.131087,272c0,0,19.727932,56.043242,6.02694,57.542987-23.985472,2.627694-60.276881-6.933496-60.276881-6.933496L125,278.747597Z" fill="#ffafa7" fill-rule="evenodd"/><path d="M149,341.938838l-.154644,54.665742c-17.781648,22.128997-79.685172-6.486803-79.685172-6.486803l-.722478-22.356476L67,314.506904c1.425625-21.206854,20.884194-31.617046,20.884194-31.617046c8.04149-4.055475,20.309111-6.35961,31.363743-5.809259c11.535479.579702,14.386728,6.171267,19.139616,16.828506C142.229491,302.521485,149,310.59819,149,341.938838" fill="#6f35a5" fill-rule="evenodd"/><path d="M94.348191,331c0,0-8.81748,52.133615,3.617112,50.851398c40.901192-4.219705,65.255758-4.787933,65.255758-4.787933L170,391.185148c.157347,2.406319-77.456671,24.69565-89.928198,17.32846-8.805169-5.205455-22.832867-19.220904-16.465371-61.111605l1.504463-14.042625L94.348191,331Z" fill="#ffafa7" fill-rule="evenodd"/><path d="M71.545081,297.900531c0,0-9.436235,9.219289-11.545081,44.099469l36.517618-4.110401c0,0,6.085458-59.40879-24.972537-39.989068" fill="#6f35a5" fill-rule="evenodd"/><path d="M89.29754,225.307244l.830195,10.950875c0,0-9.30602,1.254609-6.651355,9.750174c2.652215,8.493115,9.017043,4.775846,9.017043,4.775846s1.591819,21.764527,23.874838,14.864177c17.732865-5.493816,16.647979-28.468844,14.397391-48.057408-.874276-7.588914-8.047258-12.805834-15.541052-11.34539l-13.39577,2.609684c-7.741139,1.509452-13.128835,8.58133-12.53129,16.452042" transform="matrix(1.000702 0 0 1-.075465 0)" fill="#ffafa7" fill-rule="evenodd"/><path d="M91,244l6.105977,32.395425c1.374592,7.300307,8.60614,11.968936,15.865081,10.246697c6.726037-1.598336,11.034087-8.135407,9.826339-14.912848l-3.31446-18.567958L91,244Z" fill="#ffafa7" fill-rule="evenodd"/><path d="M116.020965,245.080052c.056577-.06055.176198.292659.444536.343118.261872.040367.661147-.383485.758137-1.279124.134169-.88807.05981-2.056185-.021015-3.408474-.069509-1.453206-.137402-2.888752-.208528-4.394939-.250557-6.241721-.266722-11.31785-.033946-11.340633.232775-.02263.622351,5.015655.874524,11.257376.048495,1.508711.095373,2.949302.142252,4.402508.033946,1.334628.066276,2.654119-.182664,3.746546-.19398,1.140363-.94565,1.846783-1.414434,1.508711-.449386-.355733-.389576-.842658-.358862-.835089" fill="#241352" fill-rule="evenodd"/><path d="M123.992055,264.023932c.104052.110792-.814652,1.010702-2.712968,1.982966-1.878012.972264-4.811773,1.926439-8.189659,1.989749s-6.357327-.780072-8.278484-1.679981c-1.941459-.89991-2.900769-1.765903-2.80433-1.878957.170036-.327856,4.672192,2.521103,11.054898,2.378655c6.382706-.099487,10.747817-3.113506,10.930543-2.792432" fill="#241352" fill-rule="evenodd"/><path d="M117.973305,248.736861c.121247.085158-.156909.759515-1.115002,1.410857-.924809.644437-2.627028,1.169193-4.414834.626024-1.780674-.563882-2.848127-1.954025-3.211869-2.996632-.385139-1.072527-.206834-1.776805-.057058-1.776805.187815-.016111.335214.607612.848733,1.41546.496876.798642,1.452592,1.790614,2.798201,2.216403c1.350364.414281,2.724502.1473,3.611273-.223251.901035-.365948,1.397911-.789436,1.540556-.672056" fill="#241352" fill-rule="evenodd"/><path d="M88.974056,246.782289c.001622.128099-.359969.352797-1.000455.109199-.304839-.123899-.711831-.478797-.88533-1.096193-.08756-.298198-.126475-.665695-.038915-1.052093.069724-.373797.346997-.781194.653457-.909294.418343-.222598,1.003699-.090299,1.272865.506097l-.715074.480897c-.468609-1.53509-.697238-2.715282-.522118-2.813981.17512-.1008.697238.909294,1.261514,2.389784l-.716696.485096c-.016214-.033599-.134583-.098699-.280516-.027299-.157284.062999-.228629.306598-.17512.627895.051887.306598.20755.535497.400506.709796.387535.331797.755611.428397.745882.590096" fill="#241352" fill-rule="evenodd"/><path d="M106.991058,224.783755c-.094842.282-.978593.274-1.957185.526-.987215.226-1.752414.636-1.983051.434-.23926-.174.3729-1.122,1.69637-1.442c1.325627-.324,2.360262.222,2.243866.482" fill="#241352" fill-rule="evenodd"/><path d="M125.985795,221.17403c-.13834.272-1.214046.138-2.473411.242-1.261749.08-2.294523.37-2.485336.122-.205124-.224.772792-1.046,2.378004-1.16c1.605212-.12,2.735778.546,2.580743.796" fill="#241352" fill-rule="evenodd"/><path d="M92.722888,235.40985c6.08708-6.113856,7.87486-16.299501,9.52604-24.890012c5.63654,4.229821,13.389179,5.269374,19.888455,2.669257c2.039411,2.469247,4.435899,4.6249,7.084019,6.375596.752497.498788,1.646387.98276,2.50433.716081c1.020904-.318532,1.476236-1.523525,1.718282-2.595178.778858-3.424846.807616-7.091678-.352284-10.402939-1.162297-3.308791-3.592336-6.215095-6.777268-7.484288-3.403014-1.358086-7.232601-.767936-10.767421.175317-5.3226,1.422286-10.453481,3.60757-15.198528,6.471897-4.658773,2.810003-9.13062,6.531158-11.107722,11.704231-1.974706,5.175542-1.96512,15.232786,2.796701,17.850188" fill="#241352" fill-rule="evenodd"/><path d="M127.555502,279.224868C121.362124,276.868954,169,293.80163,169,293.80163L164.166698,325l-18.119218-5.690845-18.491978-40.084287Z" fill="#6f35a5" fill-rule="evenodd"/><path d="M158.644915,376.631015c0,0,20.12903-6.278622,19.43817-4.214485-.69086,2.0666-4.117921,2.142959-7.540029,5.475628c0,0,22.501229.241391,21.41913,2.086305-1.0821,1.842452-15.728823,2.305528-15.817966,2.620814-.086667.315286,16.021014.70693,15.659489,2.411444-.364002,1.704514-15.33263,1.290701-15.33263,1.290701s13.874148,1.465586,13.591861,3.305575c-.284763,1.839988-13.076812.514802-13.076812.514802s10.707089,1.216806,10.427278,2.879447c-.170858,1.017289-31.348691,1.246364-31.413406,1.992704-.034333.391644,2.644915-18.362935,2.644915-18.362935" fill="#ffafa7" fill-rule="evenodd"/><path d="M189.232102,279c0,0-12.137607-17.088248-9.97369-17.080817s3.292596,3.224946,7.495021,5.429401c0,0-6.705683-21.373313-4.632749-20.924991c2.077852.448322,7.030271,14.165486,7.354859,14.153101.322128-.017338-4.273736-15.384129-2.54998-15.574851c1.721298-.188246,5.943395,14.108517,5.943395,14.108517s-2.89178-13.590842-1.067204-13.895502c1.827034-.304661,4.517176,12.216152,4.517176,12.216152s-2.151622-10.514511-.491799-10.77211C196.837779,246.505331,206,272.584786,206,272.584786c-.240982,0-16.767898,6.415214-16.767898,6.415214" fill="#ffafa7" fill-rule="evenodd"/><path d="M78.404714,325.000181c.129618-.013422.571283.720324.595286,2.178869-.004801.706902-.314446,1.731462-1.279386,2.373491-.460866.319895-1.147366.548072-1.857869.402665-.703302-.136459-1.233779-.581628-1.617835-.970871-.770512-.838887-1.274585-1.335508-2.0667-1.422753-.756109-.111851-1.440209.125274-1.879472.498858-.921734.785199-.89293,1.691196-1.080157,1.680011-.124818.073822-.602487-.968635.434463-2.243743.506473-.608472,1.524221-1.105093,2.657185-1.00219.559282.042504,1.156968.230414,1.661041.588339.492072.34674.842523.765065,1.188173,1.109568c1.24098,1.579345,2.870816.035793,2.959629-1.098382.196829-1.201286.081612-2.08044.285642-2.093862" fill="#fcf2fc" fill-rule="evenodd"/><path d="M89.008737,316.113905c-.077929-.101907.356586-.85694,1.660129-1.662927.639964-.377517,1.723889-.673972,2.793645-.224658.524251.206129,1.081563.650812,1.315351,1.313203.236149.653128.106267,1.331732-.04723,1.85516-.36367,1.086229-.552589,1.769465-.226703,2.47123.28574.683236.852498,1.12097,1.414533,1.280778c1.176023.333512,1.97893-.17602,2.066305-.016212.129882.062533-.566758,1.016748-2.245778.849992-.80763-.08801-1.778204-.660076-2.264671-1.649031-.245595-.486372-.382561-1.079281-.318801-1.683772.061399-.595226.257402-1.10939.389646-1.579549.788738-1.871372-1.433425-2.385536-2.505543-1.845895-1.178384.484055-1.915169,1.053805-2.030883.891681" fill="#fcf2fc" fill-rule="evenodd"/><path d="M89.008738,293.114659c-.077929-.101893.356586-.85683,1.657768-1.662714.639964-.377469,1.723889-.676201,2.796006-.224629.524251.206103,1.081563.648413,1.312989,1.313035.238511.653044.108629,1.331561-.044868,1.854922-.36367,1.08609-.554951,1.769239-.226703,2.468598.28574.685464.850137,1.120826,1.412172,1.282929c1.178384.33347,1.981291-.175997,2.068666-.01621.129882.062526-.566758,1.016618-2.24814.849883-.80763-.090314-1.775841-.662307-2.262309-1.648819-.245595-.486309-.382561-1.079143-.321163-1.685872.061399-.592834.259764-1.106932.392008-1.577031.788738-1.871132-1.433425-2.38523-2.505543-1.845659-1.180746.483994-1.91517,1.05367-2.030883.891567" fill="#fcf2fc" fill-rule="evenodd"/><path d="M110.504936,322.988258c-.099066.083504-.92301-.26631-1.875016-1.437622-.449424-.577756-.855355-1.584317-.485667-2.642786.169138-.514564.579901-1.083294,1.249205-1.360888.657222-.282107,1.372434-.216658,1.930589-.112843c1.16222.250512,1.889514.374639,2.587812.004514.686217-.329502,1.087316-.905002,1.205713-1.455676.244042-1.148743-.360023-1.868682-.20055-1.965727.055574-.128642,1.109062.453629,1.082484,2.065029-.019331.77636-.526745,1.749068-1.510161,2.297486-.483252.275337-1.0849.455886-1.722792.446858-.623394-.009027-1.174301-.151209-1.674466-.23697-2.017575-.593555-2.351019,1.566262-1.696213,2.541227.608897,1.081037,1.266119,1.73327,1.109062,1.857398" fill="#fcf2fc" fill-rule="evenodd"/><path d="M125.993464,346.956655c.071719.115958-.440203.902456-1.862207,1.673829-.699874.360478-1.854788.597435-2.937985.027729-.531706-.269729-1.07825-.79154-1.271148-1.532662-.195371-.728519-.004946-1.451996.197844-2.006577.462461-1.154539.714712-1.880536.430311-2.664513-.247305-.766331-.801268-1.2831-1.377489-1.502412-1.201903-.45627-2.079836.035291-2.158974-.143687-.131071-.080667.670197-1.061268,2.413698-.746165.835891.158812,1.802854.85456,2.233165,1.966244.217629.547019.316551,1.199913.20279,1.852807-.111287.64029-.358592,1.184788-.534179,1.681391-.971909,1.971285,1.310717,2.704846,2.473051,2.203201c1.268675-.433582,2.082309-.993205,2.191123-.809185" fill="#fcf2fc" fill-rule="evenodd"/><path d="M145.993064,308.956655c.074189.115958-.440185.902456-1.862131,1.673829-.699845.360478-1.854713.597435-2.937865.027729-.531684-.269729-1.078206-.79154-1.271097-1.532662-.195363-.725998-.004945-1.451996.197836-2.006577.462442-1.154539.714683-1.880536.430294-2.664513-.247295-.766331-.801236-1.2831-1.377434-1.502412-1.201853-.45627-2.079751.037812-2.158885-.143687-.131066-.080667.672642-1.061268,2.413599-.746165.835858.158812,1.802781.85456,2.233074,1.966244.21762.547019.316538,1.199913.202782,1.852807-.111282.64029-.358577,1.184788-.534157,1.681391-.971869,1.971285,1.310664,2.704846,2.47295,2.203201c1.268624-.433582,2.082224-.993205,2.191034-.809185" fill="#fcf2fc" fill-rule="evenodd"/><path d="M157.518128,303.022669c.088279-.100869,1.062032.110252,2.354127,1.135361.612608.511382,1.273369,1.468463,1.099485,2.615553-.072229.558298-.395922,1.210427-1.064708,1.613902-.65541.403476-1.447253.46212-2.078588.457429-1.318846-.051608-2.13744-.046916-2.816927.455083-.674137.459774-.987129,1.116595-.997829,1.700696-.013376,1.217463.799868,1.846135.647385,1.972807-.032102.143093-1.305471-.265074-1.629164-1.918854-.144457-.795222.195286-1.878976,1.147638-2.610862.465475-.370634,1.083433-.661512,1.778971-.767072.679487-.100869,1.310821-.051608,1.875277-.051608c2.322026.246308,2.22037-2.019723,1.29477-2.899393-.898849-.99696-1.75757-1.54822-1.610437-1.703042" fill="#fcf2fc" fill-rule="evenodd"/><path d="M105.993464,366.956684c.071719.115956-.440203.902443-1.862207,1.673805-.699873.360473-1.854788.597427-2.937984.027728-.531706-.269724-1.07825-.794049-1.271148-1.53264-.195371-.728509-.007419-1.451976.195371-2.00655.464933-1.154522.717185-1.88051.430311-2.664476-.244832-.766321-.798796-1.283083-1.375016-1.502392-1.204376-.456263-2.082309.035291-2.158974-.143685-.131071-.083186.670197-1.061253,2.411225-.746154.838364.156289,1.805327.854548,2.235637,1.966217.217629.547012.314078,1.199897.202791,1.852782-.111288.64028-.358593,1.184771-.534179,1.681367-.971909,1.971259,1.310717,2.704809,2.470577,2.203171c1.271148-.433576,2.084782-.993191,2.193596-.809173" fill="#fcf2fc" fill-rule="evenodd"/><path d="M133.985447,328.992401c-.102735.074591-.835579-.392203-1.588969-1.744462-.353866-.664099-.611845-1.778148-.139263-2.853699.221451-.526948.673485-1.080364,1.335556-1.296918.650655-.21896,1.315009-.064966,1.826402.108277c1.059313.40664,1.725949.620788,2.426831.3128.682618-.271895,1.130086-.832529,1.305877-1.397976.365281-1.191046-.116433-2.023576.04566-2.105385.06849-.132338.986257.606351.769372,2.312315-.111867.820498-.703165,1.790179-1.691705,2.252161-.486279.235803-1.073011.35611-1.671157.269489-.582166-.079403-1.084426-.298363-1.541027-.447545-1.821836-.866216-2.394869,1.383539-1.894892,2.492776.44062,1.217515.979408,1.982672.817315,2.098167" fill="#fcf2fc" fill-rule="evenodd"/><path d="M139.984173,348.992401c-.100446.074591-.835528-.392203-1.588873-1.744462-.351561-.664099-.611808-1.778148-.136972-2.853699.219155-.526948.673445-1.080364,1.335475-1.294512.650617-.221366,1.312647-.067372,1.824009.108277c1.059249.404234,1.728128.620788,2.426684.310394.682577-.271895,1.130018-.830123,1.305799-1.397976.365258-1.191046-.114144-2.023576.045657-2.105385.068486-.132338.986197.606351.771608,2.312315-.11186.820498-.705405,1.790179-1.693885,2.252161-.483967.235803-1.072946.35611-1.671057.271895-.58213-.081809-1.082077-.300769-1.540933-.449951-1.821725-.866216-2.394724,1.383539-1.894777,2.492776.440593,1.217515.981631,1.985078.817265,2.098167" fill="#fcf2fc" fill-rule="evenodd"/><path d="M100.212249,341.999105c-.124558-.017393-.371368-.909435-.064586-2.494735.163771-.765317.687377-1.806446,1.734589-2.283527.505153-.24351,1.19945-.335447,1.833774-.014909.629711.308115,1.024145.91192,1.296328,1.418819.532833,1.083371.892668,1.736872,1.614644,2.012684.687377.290721,1.379367.188845,1.8776-.116785c1.040292-.641077,1.217903-1.627541,1.393207-1.575361.133785-.049695.343689,1.187733-.915734,2.335708-.613564.544171-1.679229.849801-2.717214.482051-.516687-.173936-1.033373-.514353-1.4255-1.013797-.382902-.489505-.618178-1.021251-.864988-1.473484-.805015-1.990321-2.680309-.693258-3.021691.519323-.454406,1.254821-.546672,2.2388-.740429,2.204013" fill="#fcf2fc" fill-rule="evenodd"/><path d="M136.213287,365.999105c-.124567-.017393-.373702-.909435-.06459-2.494735.163783-.765317.687427-1.806446,1.734716-2.283527.50519-.24351,1.199539-.335447,1.83391-.014909.629757.308115,1.024221.91192,1.296424,1.418819.532871,1.083371.892733,1.736872,1.614763,2.012684.687427.290721,1.379468.188845,1.877738-.116785c1.040369-.641077,1.217993-1.627541,1.391003-1.575361.133795-.049695.346021,1.187733-.915801,2.335708-.608996.544171-1.679354.852285-2.715109.482051-.516724-.173936-1.033448-.514353-1.425605-1.013797-.382929-.48702-.618223-1.021251-.865051-1.473484-.805075-1.992806-2.680507-.693258-3.021914.519323-.45444,1.254821-.546712,2.2388-.740484,2.204013" fill="#fcf2fc" fill-rule="evenodd"/><path d="M134.213287,291.999103c-.124567-.014914-.373702-.909771-.06459-2.495656.161476-.7656.687427-1.807113,1.734716-2.28437.50519-.241115,1.199539-.333086,1.83391-.014915.629757.308229,1.024221.912257,1.296424,1.421828.532871,1.083771.892733,1.737514,1.614763,2.010942.687427.293314,1.379468.1914,1.877738-.114343c1.040369-.641314,1.217993-1.630627,1.391003-1.578427.133795-.049715.346021,1.190656-.915801,2.33657-.608996.546857-1.679354.852599-2.715109.482228-.516724-.174-1.033448-.512057-1.425605-1.014171-.382929-.4872-.618223-1.021628-.865051-1.471542-.805075-1.993542-2.680507-.693514-3.021914.519514-.45444,1.255285-.546712,2.237142-.740484,2.202342" fill="#fcf2fc" fill-rule="evenodd"/><path d="M121.76094,375.963701c-.071101.109782-1.015732.009148-2.371733-.846238-.647529-.427693-1.39917-1.283079-1.389013-2.410634-.007618-.548911.208225-1.214466.782113-1.676466.563731-.459713,1.302676-.603802,1.896879-.665554c1.249349-.089198,2.018766-.180684,2.590115-.738743.573888-.519178.779574-1.189307.711012-1.751941-.15236-1.182446-1.003035-1.701624-.876068-1.841139.010157-.139515,1.264585.116644,1.792766,1.683327.246314.754753.068561,1.836565-.726248,2.650783-.391057.402535-.931934.752465-1.571845.928574-.627214.169248-1.229035.189832-1.757215.251584-2.221913.009149-1.818159,2.19107-.827821,2.941248.980181.86911,1.861328,1.310525,1.747058,1.475199" fill="#fcf2fc" fill-rule="evenodd"/><path d="M79.189177,303.004601c.115731-.059463.856897.452837,1.531581,1.804486.312718.663245.477695,1.742735-.137892,2.714733-.290557.477994-.829811.955988-1.561128,1.095499-.721468.144084-1.418312-.066325-1.950179-.281308-1.098207-.487142-1.792589-.754728-2.573153-.530596-.760866.189825-1.295195.67468-1.54143,1.193842-.512168,1.088637-.078795,1.923412-.261009,1.98745-.08372.116639-.997251-.672394-.593426-2.266471.201913-.763876.93323-1.621521,2.041286-1.962292.544179-.176103,1.186852-.23328,1.819675-.093769.615587.132649,1.13268.388799,1.610375.576337c1.868922.994869,2.708583-1.074915,2.282597-2.172701-.352116-1.193842-.854435-1.973728-.667297-2.06521" fill="#fcf2fc" fill-rule="evenodd"/><path d="M121.188426,296.004923c.118181-.061749.856809.45282,1.531423,1.804419.312686.663221.480109,1.742671-.137877,2.714633-.288065.475689-.829726.955953-1.560968,1.093171-.721394.146366-1.418167-.066322-1.94998-.27901-1.095632-.487125-1.789943-.756987-2.572889-.532864-.760787.189818-1.295062.676943-1.541271,1.196085-.509654,1.088598-.078787,1.923342-.25852,1.987377-.086174.116635-.999611-.674656-.595827-2.266387.201891-.763848.935596-1.621462,2.041076-1.96222.544123-.178384,1.189192-.233271,1.819489-.093766.617985.132644,1.132563.388785,1.61021.576316c1.871192.994832,2.708304-1.074875,2.282362-2.174908-.35208-1.193798-.854347-1.971368-.667228-2.062846" fill="#fcf2fc" fill-rule="evenodd"/><path d="M96.470287,338c-.092529-.009753-.077108-.894829.028273-2.490867.105381-1.59362.300721-3.900621.570599-6.742052.537186-5.685282,1.385373-13.542143,2.377496-22.18735.228753-2.147397.344415-4.236756.030843-6.185857-.29044-1.951519-1.094933-3.704743-2.264404-5.129086-2.359504-2.875287-5.708559-4.36976-8.556414-5.010593-2.886408-.652925-5.346152-.621488-7.021965-.575541-1.683523.055619-2.6191.152349-2.634715.055619-.015228-.072547.892076-.336135,2.591021-.546522c1.693805-.193459,4.212665-.372409,7.273851.195878c3.014921.56345,6.669839,2.050667,9.319782,5.167778c1.318546,1.540419,2.259263,3.533048,2.590828,5.653844.357267,2.120797.233894,4.31414.00514,6.49781-.997263,8.674226-1.991955,16.494814-2.770746,22.160749-.39068,2.831759-.729955,5.119414-.994693,6.698524-.262167,1.581529-.452366,2.447259-.544896,2.437666" fill="#241352" fill-rule="evenodd"/><path d="M97,337.095273c.036106.33818-8.218263,1.460751-18.433588,2.512868C68.348672,340.662607,60.036343,341.240332,60,340.9045c-.036106-.335832,8.215848-1.460752,18.436003-2.51052C88.648913,337.339514,96.963657,336.759441,97,337.095273" fill="#241352" fill-rule="evenodd"/><path d="M148.482422,338c-.258-.017098-.496-6.016807-1.002-13.453717-.508-7.44909-.28-13.565724.038-13.546283.258.014662.494,6.014371,1.002,13.453717.506,7.446655.28,13.565724-.038,13.546283" fill="#241352" fill-rule="evenodd"/><polygon points="189,281.117599 207.883946,276 209,279.305321 189.950807,285" fill="#241352" fill-rule="evenodd"/><path d="M200,280.001085C200,281.105806,199.103635,282,198.001085,282C196.896365,282,196,281.105806,196,280.001085s.896365-2.001085,2.001085-2.001085c1.10255,0,1.998915.896365,1.998915,2.001085" fill="#e6e2eb" fill-rule="evenodd"/><path d="M125.805627,229.96008c-.238.143472-.724-.108095-1.196-.621055-.468-.507064-.67-1.143842-.414-1.299105.236-.143472.724.108095,1.196.621055.466.507064.668,1.143842.414,1.299105" fill="#241352" fill-rule="evenodd"/><path d="M110.805653,231.96008c-.238.143472-.724-.108095-1.196-.621055-.468-.507064-.67-1.143842-.414-1.299105.236-.143472.724.108095,1.194.621055.468.507064.67,1.143842.416,1.299105" fill="#241352" fill-rule="evenodd"/></g></g></g></svg>
